<?xml version="1.0" encoding="utf-8"?>
<!-- Generator: Adobe Illustrator 23.0.1, SVG Export Plug-In . SVG Version: 6.00 Build 0)  -->
<svg version="1.1" id="Слой_1" xmlns="http://www.w3.org/2000/svg" xmlns:xlink="http://www.w3.org/1999/xlink" x="0px" y="0px"
	 viewBox="0 0 40 9" style="enable-background:new 0 0 40 9;" xml:space="preserve">
<style type="text/css">
	.st0{fill:#E00051;}
	.st1{fill:#FFFFFF;}
</style>
<g>
	<g>
		<path class="st0" d="M2,1.7c1.9,0.6,2,2.1,2,2.5h1.3c0-0.4,0.1-2,2-2.5v2.5h1.3V0.4c0,0-2.3-0.5-3.9,1.7C3-0.1,0.7,0.4,0.7,0.4
			v3.9H2V1.7z"/>
		<path class="st1" d="M5.5,7.4C5.1,7.6,4.7,7.6,4.6,7.6c0,0,0,0,0,0s0,0,0,0c-0.1,0-0.5,0-0.9-0.2C3,7.2,2,6.3,2,4.8H0.7
			c0,0.1,0,0.8,0.2,1.5c0.4,1.1,1.6,2.5,3.7,2.6v0c0,0,0,0,0,0c0,0,0,0,0,0v0c2.1-0.1,3.3-1.4,3.7-2.6C8.6,5.6,8.5,5,8.5,4.8H7.2
			C7.2,6.3,6.3,7.2,5.5,7.4z"/>
	</g>
	<g>
		<path class="st1" d="M11.8,6.6L11.8,6.6l-0.6,1.2h-0.5V5.9h0.5V7h0l0.5-1.1h0.5v1.9h-0.5L11.8,6.6L11.8,6.6z"/>
		<path class="st1" d="M13.6,7.5l-0.4-0.9h0l-0.1,1.2h-0.5l0.1-1.9h0.5L13.8,7h0l0.5-1.1h0.5L15,7.8h-0.5l-0.1-1.2h0L14,7.5
			L13.6,7.5L13.6,7.5z"/>
		<path class="st1" d="M15.8,7.3v0.5h-0.5V7.3H15.8z"/>
		<path class="st1" d="M18.9,5.1v2.6h-0.5V6.6h-0.7v1.2h-0.5V5.1h0.5v1.1h0.7V5.1H18.9z"/>
		<path class="st1" d="M19.8,7.3v0.5h-0.5V7.3H19.8z"/>
		<path class="st1" d="M20.8,7.8h-0.5V5.1h0.5v1.7h0l0.7-1.7H22v2.6h-0.5V6h0L20.8,7.8z"/>
		<path class="st1" d="M22.9,7.3v0.5h-0.5V7.3H22.9z"/>
		<path class="st1" d="M26,5.1v2.6h-0.5V5.4h-0.7v2.3h-0.5V5.1H26z"/>
		<path class="st1" d="M27.6,6.6L27.6,6.6L27,7.8h-0.5V5.9H27V7h0l0.5-1.1h0.5v1.9h-0.5L27.6,6.6L27.6,6.6z"/>
		<path class="st1" d="M29.5,5.8c0.1,0,0.2,0,0.3,0.1c0.1,0,0.2,0.1,0.2,0.2c0.1,0.1,0.1,0.2,0.1,0.3s0,0.3,0,0.5c0,0.2,0,0.3,0,0.5
			S30,7.5,30,7.6c-0.1,0.1-0.1,0.1-0.2,0.2c-0.1,0-0.2,0.1-0.3,0.1c-0.1,0-0.1,0-0.2,0c-0.1,0-0.1,0-0.1-0.1v0.8h-0.5V5.9H29L29,6h0
			c0,0,0.1-0.1,0.2-0.1C29.3,5.9,29.4,5.8,29.5,5.8z M29.1,7.4C29.1,7.5,29.1,7.5,29.1,7.4c0.1,0.1,0.2,0.1,0.2,0.1c0,0,0.1,0,0.1,0
			c0,0,0.1-0.1,0.1-0.1s0.1-0.1,0.1-0.2c0-0.1,0-0.2,0-0.3c0-0.1,0-0.3,0-0.3c0-0.1,0-0.2-0.1-0.2c0-0.1-0.1-0.1-0.1-0.1
			c0,0-0.1,0-0.1,0c-0.1,0-0.1,0-0.1,0c0,0-0.1,0-0.1,0.1V7.4z"/>
		<path class="st1" d="M31.3,5.8c0.1,0,0.2,0,0.3,0.1c0.1,0,0.2,0.1,0.3,0.2C31.9,6.1,32,6.2,32,6.4c0,0.1,0.1,0.3,0.1,0.5
			c0,0.2,0,0.3-0.1,0.5c0,0.1-0.1,0.2-0.2,0.3c-0.1,0.1-0.1,0.1-0.3,0.2s-0.2,0.1-0.3,0.1s-0.2,0-0.3-0.1c-0.1,0-0.2-0.1-0.3-0.2
			c-0.1-0.1-0.1-0.2-0.2-0.3c0-0.1-0.1-0.3-0.1-0.5c0-0.2,0-0.3,0.1-0.5c0-0.1,0.1-0.2,0.2-0.3c0.1-0.1,0.2-0.1,0.3-0.2
			C31,5.9,31.1,5.8,31.3,5.8z M31.3,6.1c0,0-0.1,0-0.1,0S31.1,6.2,31,6.2S31,6.4,31,6.5c0,0.1,0,0.2,0,0.4c0,0.1,0,0.3,0,0.4
			c0,0.1,0,0.2,0.1,0.2c0,0.1,0.1,0.1,0.1,0.1c0,0,0.1,0,0.1,0c0,0,0.1,0,0.1,0c0,0,0.1-0.1,0.1-0.1c0-0.1,0.1-0.1,0.1-0.2
			c0-0.1,0-0.2,0-0.4s0-0.3,0-0.4c0-0.1,0-0.2-0.1-0.2s-0.1-0.1-0.1-0.1S31.3,6.1,31.3,6.1z"/>
		<path class="st1" d="M33.8,5.9v0.3H33v1.6h-0.5V5.9H33.8z"/>
		<path class="st1" d="M34.8,5.8c0.1,0,0.2,0,0.3,0.1c0.1,0,0.2,0.1,0.3,0.2c0.1,0.1,0.1,0.2,0.2,0.3c0,0.1,0.1,0.3,0.1,0.5
			c0,0.2,0,0.3-0.1,0.5c0,0.1-0.1,0.2-0.2,0.3c-0.1,0.1-0.2,0.1-0.3,0.2s-0.2,0.1-0.3,0.1c-0.1,0-0.2,0-0.3-0.1
			c-0.1,0-0.2-0.1-0.3-0.2C34.1,7.5,34,7.4,34,7.3c0-0.1-0.1-0.3-0.1-0.5c0-0.2,0-0.3,0.1-0.5c0-0.1,0.1-0.2,0.2-0.3
			c0.1-0.1,0.2-0.1,0.3-0.2C34.5,5.9,34.6,5.8,34.8,5.8z M34.8,6.1c0,0-0.1,0-0.1,0c0,0-0.1,0.1-0.1,0.1c0,0.1-0.1,0.1-0.1,0.2
			c0,0.1,0,0.2,0,0.4c0,0.1,0,0.3,0,0.4c0,0.1,0,0.2,0.1,0.2c0,0.1,0.1,0.1,0.1,0.1c0,0,0.1,0,0.1,0c0,0,0.1,0,0.1,0
			c0,0,0.1-0.1,0.1-0.1C35,7.3,35,7.3,35,7.2c0-0.1,0-0.2,0-0.4s0-0.3,0-0.4c0-0.1,0-0.2-0.1-0.2c0-0.1-0.1-0.1-0.1-0.1
			S34.8,6.1,34.8,6.1z"/>
		<path class="st1" d="M36,5.9c0.1,0,0.2,0,0.3-0.1c0.1,0,0.2,0,0.4,0c0.1,0,0.2,0,0.3,0c0.1,0,0.2,0,0.2,0.1c0.1,0,0.1,0.1,0.2,0.2
			c0,0.1,0.1,0.2,0.1,0.3c0,0.1,0,0.1,0,0.2c0,0,0,0.1-0.1,0.1c0,0-0.1,0.1-0.1,0.1c0,0-0.1,0-0.1,0v0c0,0,0.1,0,0.1,0.1
			c0,0,0.1,0.1,0.1,0.1c0,0,0.1,0.1,0.1,0.1c0,0.1,0,0.1,0,0.2c0,0.1,0,0.2-0.1,0.3c0,0.1-0.1,0.1-0.2,0.2c-0.1,0-0.2,0.1-0.3,0.1
			c-0.1,0-0.2,0-0.4,0c-0.2,0-0.3,0-0.4,0c-0.1,0-0.2,0-0.3-0.1L36,5.9L36,5.9z M36.5,6.1v0.5h0.2c0,0,0.1,0,0.1,0c0,0,0.1,0,0.1,0
			c0,0,0.1,0,0.1-0.1c0,0,0-0.1,0-0.1c0-0.1,0-0.1,0-0.1c0,0,0-0.1-0.1-0.1c0,0-0.1,0-0.1,0c0,0-0.1,0-0.1,0L36.5,6.1L36.5,6.1z
			 M36.7,7.5c0,0,0.1,0,0.1,0c0,0,0.1,0,0.1-0.1c0,0,0.1-0.1,0.1-0.1c0,0,0-0.1,0-0.2C37,7.1,37,7,36.9,7c-0.1,0-0.1-0.1-0.2-0.1
			h-0.2v0.6C36.5,7.5,36.7,7.5,36.7,7.5z"/>
		<path class="st1" d="M38.4,7.8c-0.1,0-0.2,0-0.2,0c-0.1,0-0.1,0-0.2-0.1c-0.1,0-0.1-0.1-0.1-0.2c0-0.1-0.1-0.2-0.1-0.3
			s0-0.2,0.1-0.3c0-0.1,0.1-0.1,0.1-0.2c0.1,0,0.1-0.1,0.2-0.1c0.1,0,0.2,0,0.3,0c0.1,0,0.1,0,0.2,0c0.1,0,0.1,0,0.2,0V6.5
			c0-0.1,0-0.2-0.1-0.3c-0.1-0.1-0.2-0.1-0.3-0.1H38V5.9c0.1,0,0.1,0,0.2-0.1c0.1,0,0.2,0,0.3,0c0.1,0,0.3,0,0.4,0
			c0.1,0,0.2,0.1,0.3,0.1c0.1,0,0.1,0.1,0.2,0.2c0,0.1,0.1,0.2,0.1,0.3v1.3H39l-0.1-0.1h0c0,0-0.1,0.1-0.2,0.1
			C38.7,7.8,38.6,7.8,38.4,7.8z M38.8,6.8h-0.2c0,0-0.1,0-0.1,0c0,0-0.1,0-0.1,0.1c0,0-0.1,0.1-0.1,0.1c0,0,0,0.1,0,0.2s0,0.1,0,0.2
			c0,0,0,0.1,0.1,0.1c0,0,0.1,0,0.1,0.1c0,0,0.1,0,0.1,0c0.1,0,0.1,0,0.1,0c0,0,0.1,0,0.1-0.1V6.8z"/>
		<path class="st1" d="M25,4.5c-0.1,0-0.2,0-0.3,0c-0.1,0-0.2,0-0.3-0.1V4.1h0.4c0.1,0,0.1,0,0.2,0C25,4.1,25.1,4,25.1,4
			c0-0.1,0.1-0.1,0.1-0.2c0-0.1,0.1-0.2,0.1-0.4c-0.2,0-0.4-0.1-0.5-0.2c-0.1-0.1-0.2-0.3-0.3-0.5l-0.6-2h0.7l0.6,1.9
			c0,0.1,0.1,0.1,0.1,0.2S25.4,3,25.4,3l0.5-2.2h0.7L26,3.6C25.9,4.2,25.5,4.5,25,4.5z"/>
		<polygon class="st1" points="14.4,4.4 14.4,2.8 15.4,2.8 15.4,4.4 16.1,4.4 16.1,0.8 15.4,0.8 15.4,2.4 14.4,2.4 14.4,0.8 
			13.7,0.8 13.7,4.4 		"/>
		<g>
			<g>
				<path class="st1" d="M13.1,1.4C13,1.3,13,1.1,12.8,1c-0.1-0.1-0.2-0.2-0.4-0.2c-0.2,0-0.4-0.1-0.6-0.1c-0.2,0-0.4,0-0.5,0
					c-0.1,0-0.3,0-0.4,0.1v3.6h0.7v-1c0,0,0.1,0,0.1,0s0.1,0,0.1,0s0.1,0,0.1,0c0,0,0.1,0,0.1,0c0.2,0,0.4,0,0.5-0.1
					c0.1,0,0.3-0.1,0.4-0.2C13,3,13,2.8,13.1,2.7s0.1-0.4,0.1-0.6C13.2,1.8,13.1,1.6,13.1,1.4z M12.4,2.5c0,0.1-0.1,0.2-0.1,0.3
					c-0.1,0.1-0.1,0.1-0.2,0.2c-0.1,0-0.2,0-0.3,0h-0.3V1.1h0.3c0.1,0,0.2,0,0.3,0c0.1,0,0.1,0.1,0.2,0.1c0.1,0.1,0.1,0.2,0.1,0.3
					c0,0.1,0,0.3,0,0.4C12.5,2.2,12.5,2.4,12.4,2.5z"/>
			</g>
		</g>
		<polygon class="st1" points="17.6,4.4 18.6,2 18.6,2 18.6,4.4 19.3,4.4 19.3,0.8 18.6,0.8 17.6,3.2 17.5,3.2 17.5,0.8 16.9,0.8 
			16.9,4.4 		"/>
		<polyline class="st1" points="23.7,4.4 23,4.4 22.9,2 22.8,2 22.1,4 21.5,4 20.8,2 20.8,2 20.6,4.4 20,4.4 20.2,0.8 20.9,0.8 
			21.8,3.3 21.8,3.3 22.7,0.8 23.4,0.8 23.7,4.4 		"/>
	</g>
</g>
</svg>
