<?xml version="1.0" encoding="utf-8"?>
<!-- Generator: Adobe Illustrator 12.0.0, SVG Export Plug-In  -->
<!DOCTYPE svg PUBLIC "-//W3C//DTD SVG 1.1//EN" "http://www.w3.org/Graphics/SVG/1.1/DTD/svg11.dtd" [
	<!ENTITY ns_flows "http://ns.adobe.com/Flows/1.0/">
	<!ENTITY ns_svg "http://www.w3.org/2000/svg">
	<!ENTITY ns_xlink "http://www.w3.org/1999/xlink">
]>
<svg  version="1.1" xmlns="&ns_svg;" xmlns:xlink="&ns_xlink;" xmlns:a="http://ns.adobe.com/AdobeSVGViewerExtensions/3.0/"
	 width="40" height="9" viewBox="-0.583 -0.334 40 9" enable-background="new -0.583 -0.334 40 9" xml:space="preserve">
<defs>
</defs>
<path fill="#E00051" d="M1.287,1.416c1.912,0.553,1.995,2.141,1.988,2.508h1.288C4.555,3.556,4.637,1.968,6.55,1.416v2.509h1.287
	V0.055c0,0-2.283-0.531-3.917,1.701C2.281-0.476,0,0.055,0,0.055v3.868h1.287V1.416z"/>
<path fill="#FFFFFF" d="M4.816,7.094c-0.42,0.152-0.781,0.162-0.875,0.162c0,0-0.006,0-0.012,0s-0.013,0-0.013,0
	c-0.093,0-0.454-0.01-0.876-0.162C2.3,6.826,1.308,6.016,1.334,4.486H0.015C0.006,4.634-0.012,5.272,0.246,5.989
	c0.408,1.126,1.576,2.478,3.66,2.569v0.004c0.008,0,0.016,0,0.023-0.002c0.008,0.002,0.016,0.002,0.023,0.002V8.558
	c2.083-0.092,3.251-1.443,3.658-2.569c0.26-0.716,0.24-1.354,0.231-1.502H6.525C6.551,6.016,5.56,6.826,4.816,7.094z"/>
<path fill="#FFFFFF" d="M11.099,6.089h-0.02l-0.559,1.185h-0.48v-1.88h0.461v1.146h0.02l0.52-1.146h0.52v1.88h-0.461V6.089z"/>
<path fill="#FFFFFF" d="M12.939,6.992l-0.355-0.902h-0.016L12.48,7.274h-0.461l0.141-1.88h0.52l0.451,1.146h0.018l0.451-1.146h0.52
	l0.141,1.88h-0.461L13.71,6.089h-0.016l-0.355,0.902H12.939z"/>
<path fill="#FFFFFF" d="M15.099,6.859v0.452h-0.48V6.859H15.099z"/>
<path fill="#FFFFFF" d="M18.22,4.641v2.633h-0.48V6.087h-0.719v1.187h-0.48V4.641h0.48v1.146h0.719V4.641H18.22z"/>
<path fill="#FFFFFF" d="M19.14,6.859v0.452h-0.48V6.859H19.14z"/>
<path fill="#FFFFFF" d="M20.06,7.274h-0.48V4.641h0.461v1.729h0.02l0.74-1.729h0.498v2.633h-0.461V5.506h-0.02L20.06,7.274z"/>
<path fill="#FFFFFF" d="M22.22,6.859v0.452h-0.48V6.859H22.22z"/>
<path fill="#FFFFFF" d="M25.339,4.641v2.633h-0.48V4.942H24.14v2.332h-0.48V4.641H25.339z"/>
<path fill="#FFFFFF" d="M26.939,6.089h-0.02l-0.559,1.185h-0.48v-1.88h0.461v1.146h0.02l0.52-1.146h0.52v1.88h-0.461V6.089z"/>
<path fill="#FFFFFF" d="M28.779,5.357c0.1,0,0.189,0.018,0.273,0.054c0.084,0.034,0.156,0.091,0.217,0.169
	c0.061,0.077,0.107,0.178,0.141,0.302s0.049,0.275,0.049,0.452c0,0.179-0.016,0.329-0.049,0.453s-0.082,0.225-0.145,0.303
	c-0.063,0.077-0.139,0.134-0.229,0.169c-0.088,0.035-0.188,0.053-0.297,0.053c-0.068,0-0.133-0.009-0.189-0.026
	c-0.057-0.019-0.107-0.04-0.15-0.067v0.81h-0.48V5.394h0.34l0.061,0.112h0.02c0.043-0.037,0.1-0.071,0.168-0.103
	C28.578,5.373,28.667,5.357,28.779,5.357z M28.4,6.972c0.021,0.019,0.051,0.036,0.088,0.052c0.037,0.015,0.082,0.022,0.133,0.022
	c0.049,0,0.098-0.011,0.141-0.031c0.043-0.022,0.082-0.059,0.113-0.113c0.031-0.054,0.057-0.127,0.076-0.219
	c0.018-0.093,0.027-0.209,0.027-0.35c0-0.14-0.01-0.256-0.027-0.349c-0.02-0.092-0.045-0.165-0.076-0.22
	c-0.031-0.053-0.07-0.091-0.113-0.111c-0.043-0.021-0.092-0.032-0.141-0.032c-0.051,0-0.094,0.007-0.127,0.022
	C28.46,5.659,28.429,5.676,28.4,5.697V6.972z"/>
<path fill="#FFFFFF" d="M30.58,5.357c0.131,0,0.244,0.018,0.344,0.054c0.1,0.034,0.182,0.091,0.25,0.169
	c0.068,0.077,0.119,0.178,0.154,0.302s0.053,0.275,0.053,0.452c0,0.179-0.018,0.329-0.053,0.453s-0.086,0.225-0.154,0.303
	c-0.068,0.077-0.15,0.134-0.25,0.169S30.71,7.311,30.58,7.311s-0.246-0.018-0.346-0.053c-0.098-0.035-0.182-0.092-0.25-0.169
	c-0.068-0.078-0.119-0.179-0.154-0.303c-0.033-0.124-0.051-0.274-0.051-0.453c0-0.177,0.018-0.328,0.051-0.452
	c0.035-0.124,0.086-0.225,0.154-0.302c0.068-0.078,0.152-0.135,0.25-0.169C30.333,5.375,30.449,5.357,30.58,5.357z M30.58,5.603
	c-0.047,0-0.088,0.011-0.127,0.032s-0.072,0.06-0.102,0.114s-0.053,0.13-0.068,0.225c-0.016,0.096-0.023,0.215-0.023,0.359
	c0,0.146,0.008,0.266,0.023,0.36c0.016,0.096,0.039,0.17,0.068,0.225c0.029,0.056,0.063,0.093,0.102,0.115
	c0.039,0.021,0.08,0.031,0.127,0.031c0.045,0,0.086-0.011,0.125-0.031c0.039-0.022,0.074-0.06,0.104-0.115
	c0.029-0.055,0.051-0.129,0.066-0.225c0.018-0.095,0.025-0.215,0.025-0.36c0-0.145-0.008-0.264-0.025-0.359
	c-0.016-0.095-0.037-0.17-0.066-0.225s-0.064-0.093-0.104-0.114S30.625,5.603,30.58,5.603z"/>
<path fill="#FFFFFF" d="M33.062,5.394v0.282h-0.781v1.598H31.8v-1.88H33.062z"/>
<path fill="#FFFFFF" d="M34.06,5.357c0.131,0,0.244,0.018,0.344,0.054c0.1,0.034,0.182,0.091,0.25,0.169
	c0.068,0.077,0.119,0.178,0.154,0.302s0.053,0.275,0.053,0.452c0,0.179-0.018,0.329-0.053,0.453s-0.086,0.225-0.154,0.303
	c-0.068,0.077-0.15,0.134-0.25,0.169s-0.213,0.053-0.344,0.053s-0.246-0.018-0.346-0.053c-0.098-0.035-0.182-0.092-0.25-0.169
	c-0.068-0.078-0.119-0.179-0.154-0.303c-0.033-0.124-0.051-0.274-0.051-0.453c0-0.177,0.018-0.328,0.051-0.452
	c0.035-0.124,0.086-0.225,0.154-0.302c0.068-0.078,0.152-0.135,0.25-0.169C33.814,5.375,33.929,5.357,34.06,5.357z M34.06,5.603
	c-0.047,0-0.088,0.011-0.127,0.032s-0.072,0.06-0.102,0.114s-0.053,0.13-0.068,0.225C33.748,6.07,33.74,6.189,33.74,6.333
	c0,0.146,0.008,0.266,0.023,0.36c0.016,0.096,0.039,0.17,0.068,0.225c0.029,0.056,0.063,0.093,0.102,0.115
	c0.039,0.021,0.08,0.031,0.127,0.031c0.045,0,0.086-0.011,0.125-0.031c0.039-0.022,0.074-0.06,0.104-0.115
	c0.029-0.055,0.051-0.129,0.066-0.225c0.018-0.095,0.025-0.215,0.025-0.36c0-0.145-0.008-0.264-0.025-0.359
	c-0.016-0.095-0.037-0.17-0.066-0.225s-0.064-0.093-0.104-0.114S34.105,5.603,34.06,5.603z"/>
<path fill="#FFFFFF" d="M35.281,5.432c0.1-0.027,0.203-0.047,0.309-0.058c0.105-0.012,0.229-0.018,0.369-0.018
	c0.131,0,0.244,0.009,0.344,0.025c0.098,0.016,0.182,0.044,0.248,0.084c0.068,0.04,0.119,0.094,0.154,0.161
	c0.035,0.068,0.053,0.153,0.053,0.256c0,0.061-0.01,0.111-0.031,0.156c-0.02,0.044-0.045,0.08-0.078,0.11
	c-0.031,0.029-0.066,0.055-0.104,0.074c-0.037,0.018-0.072,0.033-0.107,0.046v0.016c0.045,0.013,0.092,0.03,0.139,0.052
	c0.045,0.023,0.088,0.054,0.127,0.091s0.07,0.083,0.096,0.135c0.023,0.053,0.037,0.114,0.037,0.184c0,0.113-0.018,0.206-0.053,0.278
	c-0.033,0.072-0.086,0.131-0.156,0.173c-0.07,0.043-0.158,0.072-0.264,0.089c-0.105,0.016-0.227,0.024-0.365,0.024
	c-0.16,0-0.293-0.006-0.402-0.017c-0.109-0.012-0.215-0.031-0.314-0.06V5.432z M35.761,5.622v0.543h0.197
	c0.037,0,0.074-0.004,0.109-0.015c0.035-0.01,0.068-0.025,0.096-0.047c0.027-0.021,0.051-0.048,0.068-0.08
	c0.016-0.032,0.025-0.073,0.025-0.12c0-0.053-0.01-0.096-0.027-0.131c-0.02-0.036-0.043-0.064-0.07-0.086
	c-0.027-0.023-0.061-0.04-0.096-0.049c-0.035-0.01-0.07-0.016-0.105-0.016H35.761z M35.998,7.046c0.045,0,0.088-0.005,0.129-0.015
	c0.041-0.011,0.076-0.027,0.107-0.053c0.031-0.024,0.055-0.058,0.074-0.099c0.018-0.042,0.027-0.092,0.027-0.151
	c0-0.112-0.035-0.19-0.102-0.233c-0.066-0.044-0.146-0.066-0.236-0.066h-0.236v0.617H35.998z"/>
<path fill="#FFFFFF" d="M37.759,7.311c-0.086,0-0.166-0.009-0.24-0.024c-0.074-0.017-0.141-0.048-0.197-0.093
	c-0.055-0.045-0.1-0.106-0.133-0.185s-0.051-0.178-0.051-0.301s0.018-0.224,0.051-0.301c0.033-0.078,0.078-0.139,0.137-0.185
	c0.061-0.045,0.129-0.075,0.209-0.092s0.168-0.025,0.264-0.025c0.063,0,0.121,0.004,0.178,0.012
	c0.059,0.008,0.111,0.016,0.162,0.026V5.995c0-0.149-0.037-0.248-0.111-0.299c-0.074-0.05-0.178-0.074-0.309-0.074h-0.4V5.433
	c0.063-0.02,0.137-0.038,0.227-0.053c0.09-0.016,0.174-0.023,0.254-0.023c0.137,0,0.256,0.01,0.355,0.026
	c0.102,0.018,0.188,0.05,0.258,0.096c0.068,0.047,0.121,0.112,0.156,0.195c0.033,0.085,0.051,0.191,0.051,0.321v1.278h-0.34
	l-0.061-0.113h-0.02c-0.043,0.038-0.098,0.073-0.168,0.104C37.962,7.295,37.871,7.311,37.759,7.311z M38.138,6.371h-0.219
	c-0.035,0-0.07,0.006-0.107,0.016c-0.035,0.009-0.066,0.027-0.096,0.054c-0.027,0.026-0.051,0.062-0.068,0.105
	c-0.02,0.044-0.029,0.098-0.029,0.163s0.01,0.119,0.029,0.163c0.018,0.044,0.041,0.079,0.068,0.105
	c0.029,0.026,0.061,0.044,0.096,0.055c0.037,0.01,0.072,0.015,0.107,0.015c0.051,0,0.094-0.008,0.131-0.022
	c0.037-0.016,0.066-0.033,0.088-0.053V6.371z"/>
<path fill="#FFFFFF" d="M24.312,4.036c-0.113,0-0.223-0.011-0.328-0.031c-0.107-0.021-0.203-0.046-0.289-0.075v-0.29h0.393
	c0.07,0,0.135-0.01,0.189-0.029c0.057-0.019,0.109-0.055,0.158-0.108c0.049-0.052,0.092-0.124,0.131-0.218
	c0.039-0.093,0.076-0.211,0.109-0.355c-0.225,0-0.406-0.059-0.549-0.177c-0.143-0.117-0.238-0.269-0.291-0.455l-0.588-1.999h0.672
	l0.57,1.949c0.023,0.08,0.059,0.144,0.107,0.191s0.102,0.07,0.162,0.07l0.477-2.211h0.672L25.292,3.14
	C25.166,3.737,24.837,4.036,24.312,4.036z"/>
<polygon fill="#FFFFFF" points="13.724,3.924 13.724,2.324 14.736,2.324 14.736,3.924 15.408,3.925 15.408,0.297 14.736,0.297 
	14.736,1.902 13.724,1.902 13.724,0.297 13.054,0.297 13.054,3.924 "/>
<g>
	<g>
		<path fill="#FFFFFF" d="M12.39,0.959c-0.049-0.166-0.129-0.304-0.234-0.408c-0.107-0.105-0.242-0.183-0.408-0.231
			c-0.168-0.049-0.365-0.074-0.598-0.074c-0.213,0-0.395,0.009-0.543,0.024c-0.15,0.016-0.295,0.043-0.438,0.081v3.573h0.672V2.877
			c0.033,0.008,0.074,0.013,0.121,0.019s0.092,0.01,0.137,0.016s0.088,0.01,0.127,0.013c0.039,0.004,0.068,0.006,0.092,0.006
			c0.191,0,0.357-0.025,0.498-0.073c0.143-0.05,0.262-0.129,0.359-0.237c0.098-0.109,0.17-0.25,0.219-0.424s0.072-0.385,0.072-0.634
			C12.466,1.327,12.441,1.126,12.39,0.959z M11.753,2.022c-0.029,0.12-0.07,0.217-0.125,0.289c-0.053,0.072-0.121,0.122-0.201,0.152
			c-0.08,0.029-0.172,0.044-0.277,0.044h-0.309V0.642h0.309c0.105,0,0.197,0.015,0.277,0.045c0.08,0.029,0.148,0.08,0.201,0.15
			c0.055,0.069,0.096,0.163,0.125,0.28c0.027,0.118,0.041,0.266,0.041,0.444C11.794,1.748,11.781,1.901,11.753,2.022z"/>
	</g>
</g>
<polygon fill="#FFFFFF" points="16.888,3.925 17.927,1.509 17.955,1.509 17.955,3.925 18.599,3.925 18.599,0.297 17.9,0.297 
	16.863,2.72 16.833,2.72 16.833,0.297 16.189,0.297 16.189,3.925 "/>
<polyline fill="#FFFFFF" points="22.965,3.925 22.321,3.925 22.173,1.488 22.15,1.488 21.427,3.537 20.812,3.537 20.089,1.488 
	20.066,1.488 19.919,3.925 19.275,3.925 19.496,0.297 20.224,0.297 21.109,2.798 21.13,2.798 22.015,0.297 22.744,0.297 
	22.965,3.925 "/>
</svg>
